<mxfile host="app.diagrams.net" modified="2020-04-02T15:02:35.258Z" agent="5.0 (Windows NT 10.0; WOW64) AppleWebKit/537.36 (KHTML, like Gecko) Chrome/80.0.3987.149 Safari/537.36" etag="uycbY3436Zy6HXHNPUWJ" version="12.9.6" type="github">
  <diagram id="WeIQDM41ThGoDPpUxySr" name="Page-1">
    <mxGraphModel dx="1483" dy="840" grid="1" gridSize="10" guides="1" tooltips="1" connect="1" arrows="1" fold="1" page="1" pageScale="1" pageWidth="827" pageHeight="1169" math="0" shadow="0" extFonts="宋体^https://fonts.googleapis.com/css?family=%E5%AE%8B%E4%BD%93|Cambria Math^https://fonts.googleapis.com/css?family=Cambria+Math">
      <root>
        <mxCell id="0" />
        <mxCell id="1" parent="0" />
        <mxCell id="4TvwLBIAikbXF8tgcs_y-34" value="" style="edgeStyle=orthogonalEdgeStyle;rounded=0;orthogonalLoop=1;jettySize=auto;html=1;" parent="1" source="4TvwLBIAikbXF8tgcs_y-5" target="4TvwLBIAikbXF8tgcs_y-6" edge="1">
          <mxGeometry relative="1" as="geometry" />
        </mxCell>
        <mxCell id="4TvwLBIAikbXF8tgcs_y-5" value="&lt;font face=&quot;宋体&quot; style=&quot;font-size: 14px;&quot;&gt;输入网络&lt;/font&gt; G=(V, E,W), &lt;font face=&quot;宋体&quot; style=&quot;font-size: 14px;&quot;&gt;参数&lt;/font&gt;λ,&amp;nbsp;η" style="rounded=0;fontSize=14;html=1;whiteSpace=wrap;fontFamily=Cambria Math;FType=g;" parent="1" vertex="1">
          <mxGeometry x="366" y="140" width="220" height="60" as="geometry" />
        </mxCell>
        <mxCell id="4TvwLBIAikbXF8tgcs_y-35" value="" style="edgeStyle=orthogonalEdgeStyle;rounded=0;orthogonalLoop=1;jettySize=auto;html=1;" parent="1" source="4TvwLBIAikbXF8tgcs_y-6" target="4TvwLBIAikbXF8tgcs_y-7" edge="1">
          <mxGeometry relative="1" as="geometry" />
        </mxCell>
        <mxCell id="4TvwLBIAikbXF8tgcs_y-6" value="&lt;p class=&quot;MsoNoSpacing&quot; style=&quot;font-size: 14px&quot;&gt;&lt;font style=&quot;font-size: 14px&quot;&gt;&lt;font face=&quot;宋体&quot; style=&quot;font-size: 14px&quot;&gt;使用&lt;/font&gt;&lt;span lang=&quot;EN-US&quot; style=&quot;font-size: 14px&quot;&gt;&lt;font face=&quot;Times New Roman&quot; style=&quot;font-size: 14px&quot;&gt;Jaccard&lt;/font&gt;&lt;/span&gt;&lt;font face=&quot;宋体&quot; style=&quot;font-size: 14px&quot;&gt;距离计算网络中每一对节点&lt;/font&gt;&lt;/font&gt;&lt;font face=&quot;宋体&quot;&gt;的&lt;/font&gt;&lt;font face=&quot;宋体&quot;&gt;初始距离，并设置初始的距离趋势状态步长&lt;/font&gt;&lt;font face=&quot;Cambria Math&quot;&gt;s(u,v;0)=0&lt;/font&gt;&lt;/p&gt;&lt;p class=&quot;MsoNoSpacing&quot; style=&quot;font-size: 14px&quot;&gt;&lt;span lang=&quot;EN-US&quot; style=&quot;font-size: 14px&quot;&gt;&lt;/span&gt;&lt;/p&gt;" style="rounded=0;whiteSpace=wrap;html=1;fontSize=14;align=center;" parent="1" vertex="1">
          <mxGeometry x="321" y="240" width="310" height="80" as="geometry" />
        </mxCell>
        <mxCell id="4TvwLBIAikbXF8tgcs_y-88" value="" style="edgeStyle=orthogonalEdgeStyle;rounded=0;orthogonalLoop=1;jettySize=auto;html=1;fontSize=16;" parent="1" source="4TvwLBIAikbXF8tgcs_y-7" target="4TvwLBIAikbXF8tgcs_y-10" edge="1">
          <mxGeometry relative="1" as="geometry" />
        </mxCell>
        <mxCell id="4TvwLBIAikbXF8tgcs_y-112" value="" style="edgeStyle=orthogonalEdgeStyle;rounded=0;orthogonalLoop=1;jettySize=auto;html=1;fontSize=16;entryX=0.5;entryY=0;entryDx=0;entryDy=0;" parent="1" source="4TvwLBIAikbXF8tgcs_y-7" target="4TvwLBIAikbXF8tgcs_y-111" edge="1">
          <mxGeometry relative="1" as="geometry">
            <mxPoint x="686" y="370" as="targetPoint" />
          </mxGeometry>
        </mxCell>
        <mxCell id="4TvwLBIAikbXF8tgcs_y-7" value="&lt;font style=&quot;font-size: 14px&quot; face=&quot;宋体&quot;&gt;所有节点对的距离都达到了0或1&lt;/font&gt;" style="rhombus;fontSize=14;html=1;whiteSpace=wrap;align=center;verticalAlign=middle;" parent="1" vertex="1">
          <mxGeometry x="346" y="350" width="260" height="80" as="geometry" />
        </mxCell>
        <mxCell id="4TvwLBIAikbXF8tgcs_y-41" value="" style="edgeStyle=orthogonalEdgeStyle;rounded=0;orthogonalLoop=1;jettySize=auto;html=1;fontSize=18;" parent="1" source="4TvwLBIAikbXF8tgcs_y-10" target="4TvwLBIAikbXF8tgcs_y-11" edge="1">
          <mxGeometry relative="1" as="geometry" />
        </mxCell>
        <mxCell id="4TvwLBIAikbXF8tgcs_y-10" value="&lt;span style=&quot;font-size: 14px;&quot;&gt;如果距离&lt;font face=&quot;Cambria Math&quot; style=&quot;font-size: 14px;&quot;&gt;d(u,v;t)&lt;/font&gt;在0和1之间，&lt;br style=&quot;font-size: 14px;&quot;&gt;计算每对节点的&lt;font face=&quot;Cambria Math&quot; style=&quot;font-size: 14px;&quot;&gt;Δd(u,v;t)&lt;/font&gt;&lt;/span&gt;" style="rounded=0;whiteSpace=wrap;html=1;fontFamily=宋体;fontSize=14;" parent="1" vertex="1">
          <mxGeometry x="376" y="470" width="200" height="60" as="geometry" />
        </mxCell>
        <mxCell id="4TvwLBIAikbXF8tgcs_y-96" value="" style="edgeStyle=orthogonalEdgeStyle;rounded=0;orthogonalLoop=1;jettySize=auto;html=1;fontSize=16;entryX=0.5;entryY=0;entryDx=0;entryDy=0;" parent="1" source="4TvwLBIAikbXF8tgcs_y-11" target="4TvwLBIAikbXF8tgcs_y-63" edge="1">
          <mxGeometry relative="1" as="geometry">
            <mxPoint x="221" y="605" as="targetPoint" />
          </mxGeometry>
        </mxCell>
        <mxCell id="wyYgdvGrcwbV3h0Y1gWT-2" value="" style="edgeStyle=orthogonalEdgeStyle;rounded=0;orthogonalLoop=1;jettySize=auto;html=1;fontFamily=宋体;fontSize=14;entryX=0.5;entryY=0;entryDx=0;entryDy=0;" edge="1" parent="1" source="4TvwLBIAikbXF8tgcs_y-11" target="4TvwLBIAikbXF8tgcs_y-61">
          <mxGeometry relative="1" as="geometry">
            <mxPoint x="256" y="600" as="targetPoint" />
          </mxGeometry>
        </mxCell>
        <mxCell id="4TvwLBIAikbXF8tgcs_y-11" value="判断上一步和当前步的距&lt;br style=&quot;font-size: 14px;&quot;&gt;离变化量正负号是否相同&lt;br style=&quot;font-size: 14px;&quot;&gt;&lt;font face=&quot;Cambria Math&quot; style=&quot;font-size: 14px;&quot;&gt;d(u, v; t) * d(u, v; t-1) &amp;gt; 0&lt;/font&gt;" style="rhombus;whiteSpace=wrap;html=1;fontSize=14;fontFamily=宋体;" parent="1" vertex="1">
          <mxGeometry x="316" y="585" width="320" height="100" as="geometry" />
        </mxCell>
        <mxCell id="4TvwLBIAikbXF8tgcs_y-53" value="" style="edgeStyle=orthogonalEdgeStyle;rounded=0;orthogonalLoop=1;jettySize=auto;html=1;fontSize=17;" parent="1" source="4TvwLBIAikbXF8tgcs_y-13" target="4TvwLBIAikbXF8tgcs_y-14" edge="1">
          <mxGeometry relative="1" as="geometry" />
        </mxCell>
        <mxCell id="4TvwLBIAikbXF8tgcs_y-102" value="" style="edgeStyle=orthogonalEdgeStyle;rounded=0;orthogonalLoop=1;jettySize=auto;html=1;fontSize=16;" parent="1" source="4TvwLBIAikbXF8tgcs_y-13" target="4TvwLBIAikbXF8tgcs_y-74" edge="1">
          <mxGeometry relative="1" as="geometry" />
        </mxCell>
        <mxCell id="4TvwLBIAikbXF8tgcs_y-13" value="点对的距离趋势状态&lt;br style=&quot;font-size: 14px&quot;&gt;步长&lt;font face=&quot;Cambria Math&quot;&gt;s&lt;font style=&quot;font-size: 14px&quot;&gt;(u, v; t) = η&lt;/font&gt;&lt;/font&gt; ?" style="rhombus;whiteSpace=wrap;html=1;fontSize=14;fontFamily=宋体;" parent="1" vertex="1">
          <mxGeometry x="356" y="860" width="240" height="80" as="geometry" />
        </mxCell>
        <mxCell id="4TvwLBIAikbXF8tgcs_y-108" value="" style="edgeStyle=orthogonalEdgeStyle;rounded=0;orthogonalLoop=1;jettySize=auto;html=1;fontSize=16;entryX=0;entryY=0.5;entryDx=0;entryDy=0;" parent="1" source="4TvwLBIAikbXF8tgcs_y-14" edge="1" target="4TvwLBIAikbXF8tgcs_y-7">
          <mxGeometry relative="1" as="geometry">
            <mxPoint x="346" y="370" as="targetPoint" />
            <Array as="points">
              <mxPoint x="140" y="900" />
              <mxPoint x="140" y="390" />
            </Array>
          </mxGeometry>
        </mxCell>
        <mxCell id="4TvwLBIAikbXF8tgcs_y-14" value="&lt;div style=&quot;&quot;&gt;更新点对距离值&lt;font face=&quot;Cambria Math&quot;&gt;d(u,v;t+1)=&lt;/font&gt;&lt;/div&gt;&lt;div style=&quot;&quot;&gt;&lt;font face=&quot;Cambria Math&quot;&gt;d(u,v;t)+Δd(u,v;t)&lt;/font&gt;&lt;/div&gt;" style="rounded=0;whiteSpace=wrap;html=1;fontSize=14;fontFamily=宋体;align=center;" parent="1" vertex="1">
          <mxGeometry x="180" y="865" width="130" height="70" as="geometry" />
        </mxCell>
        <mxCell id="4TvwLBIAikbXF8tgcs_y-101" value="" style="edgeStyle=orthogonalEdgeStyle;rounded=0;orthogonalLoop=1;jettySize=auto;html=1;fontSize=16;" parent="1" source="4TvwLBIAikbXF8tgcs_y-63" target="4TvwLBIAikbXF8tgcs_y-13" edge="1">
          <mxGeometry relative="1" as="geometry" />
        </mxCell>
        <mxCell id="4TvwLBIAikbXF8tgcs_y-63" value="更新距离趋势状态步长&lt;br style=&quot;font-size: 14px;&quot;&gt;&lt;font face=&quot;Cambria Math&quot; style=&quot;font-size: 14px;&quot;&gt;s(u, v; t) = s(u, v; t-1) + 1&lt;/font&gt;" style="rounded=0;whiteSpace=wrap;html=1;fontSize=14;align=center;fontFamily=宋体;" parent="1" vertex="1">
          <mxGeometry x="376" y="730" width="200" height="60" as="geometry" />
        </mxCell>
        <mxCell id="wyYgdvGrcwbV3h0Y1gWT-1" value="" style="edgeStyle=orthogonalEdgeStyle;rounded=0;orthogonalLoop=1;jettySize=auto;html=1;fontFamily=宋体;fontSize=16;entryX=0;entryY=0.5;entryDx=0;entryDy=0;" edge="1" parent="1" source="4TvwLBIAikbXF8tgcs_y-74" target="4TvwLBIAikbXF8tgcs_y-7">
          <mxGeometry relative="1" as="geometry">
            <mxPoint x="271" y="980" as="targetPoint" />
            <Array as="points">
              <mxPoint x="140" y="1060" />
              <mxPoint x="140" y="390" />
            </Array>
          </mxGeometry>
        </mxCell>
        <mxCell id="4TvwLBIAikbXF8tgcs_y-74" value="如果当前时间步&lt;span style=&quot;font-size: 14px&quot;&gt;&lt;font face=&quot;Cambria Math&quot; style=&quot;font-size: 14px&quot;&gt;Δd(u,v;t)&lt;/font&gt;大于0，则距离达到最大值1；如果&lt;/span&gt;&lt;span style=&quot;font-size: 14px&quot;&gt;&lt;font face=&quot;Cambria Math&quot; style=&quot;font-size: 14px&quot;&gt;Δd(u,v;t)&lt;/font&gt;小于0，则距离达到最小值0&lt;/span&gt;" style="rounded=0;whiteSpace=wrap;html=1;fontSize=14;fontFamily=宋体;align=left;" parent="1" vertex="1">
          <mxGeometry x="366" y="1020" width="220" height="80" as="geometry" />
        </mxCell>
        <mxCell id="4TvwLBIAikbXF8tgcs_y-106" value="" style="edgeStyle=orthogonalEdgeStyle;rounded=0;orthogonalLoop=1;jettySize=auto;html=1;fontSize=16;" parent="1" source="4TvwLBIAikbXF8tgcs_y-61" target="4TvwLBIAikbXF8tgcs_y-14" edge="1">
          <mxGeometry relative="1" as="geometry" />
        </mxCell>
        <mxCell id="4TvwLBIAikbXF8tgcs_y-61" value="重置趋势状态步长&lt;font face=&quot;Cambria Math&quot; style=&quot;font-size: 14px;&quot;&gt;s(u, v; t) = 0&lt;/font&gt;" style="rounded=0;whiteSpace=wrap;html=1;fontSize=14;align=center;fontFamily=宋体;" parent="1" vertex="1">
          <mxGeometry x="182" y="730" width="126" height="60" as="geometry" />
        </mxCell>
        <mxCell id="4TvwLBIAikbXF8tgcs_y-110" value="" style="edgeStyle=orthogonalEdgeStyle;rounded=0;orthogonalLoop=1;jettySize=auto;html=1;fontSize=16;" parent="1" source="4TvwLBIAikbXF8tgcs_y-109" target="4TvwLBIAikbXF8tgcs_y-5" edge="1">
          <mxGeometry relative="1" as="geometry" />
        </mxCell>
        <mxCell id="4TvwLBIAikbXF8tgcs_y-109" value="开始" style="rounded=1;whiteSpace=wrap;html=1;fontSize=14;align=center;fontFamily=宋体;FType=g;" parent="1" vertex="1">
          <mxGeometry x="416" y="40" width="120" height="60" as="geometry" />
        </mxCell>
        <mxCell id="4TvwLBIAikbXF8tgcs_y-111" value="结束" style="rounded=1;whiteSpace=wrap;html=1;fontSize=14;align=center;fontFamily=宋体;" parent="1" vertex="1">
          <mxGeometry x="670" y="1020" width="120" height="80" as="geometry" />
        </mxCell>
        <mxCell id="wyYgdvGrcwbV3h0Y1gWT-3" style="edgeStyle=orthogonalEdgeStyle;rounded=0;orthogonalLoop=1;jettySize=auto;html=1;exitX=0.5;exitY=1;exitDx=0;exitDy=0;fontFamily=宋体;fontSize=14;" edge="1" parent="1" source="4TvwLBIAikbXF8tgcs_y-5" target="4TvwLBIAikbXF8tgcs_y-5">
          <mxGeometry relative="1" as="geometry" />
        </mxCell>
        <mxCell id="wyYgdvGrcwbV3h0Y1gWT-5" value="N" style="text;html=1;strokeColor=none;fillColor=none;align=center;verticalAlign=middle;whiteSpace=wrap;rounded=0;fontFamily=宋体;fontSize=20;" vertex="1" parent="1">
          <mxGeometry x="445" y="433" width="40" height="20" as="geometry" />
        </mxCell>
        <mxCell id="wyYgdvGrcwbV3h0Y1gWT-9" value="Y" style="text;html=1;strokeColor=none;fillColor=none;align=center;verticalAlign=middle;whiteSpace=wrap;rounded=0;fontFamily=宋体;fontSize=20;" vertex="1" parent="1">
          <mxGeometry x="603" y="367" width="40" height="20" as="geometry" />
        </mxCell>
        <mxCell id="wyYgdvGrcwbV3h0Y1gWT-10" value="Y" style="text;html=1;strokeColor=none;fillColor=none;align=center;verticalAlign=middle;whiteSpace=wrap;rounded=0;fontFamily=宋体;fontSize=20;" vertex="1" parent="1">
          <mxGeometry x="445" y="690" width="40" height="20" as="geometry" />
        </mxCell>
        <mxCell id="wyYgdvGrcwbV3h0Y1gWT-11" value="N" style="text;html=1;strokeColor=none;fillColor=none;align=center;verticalAlign=middle;whiteSpace=wrap;rounded=0;fontFamily=宋体;fontSize=20;" vertex="1" parent="1">
          <mxGeometry x="276" y="613" width="40" height="20" as="geometry" />
        </mxCell>
        <mxCell id="wyYgdvGrcwbV3h0Y1gWT-12" value="N" style="text;html=1;strokeColor=none;fillColor=none;align=center;verticalAlign=middle;whiteSpace=wrap;rounded=0;fontFamily=宋体;fontSize=20;" vertex="1" parent="1">
          <mxGeometry x="317" y="877" width="40" height="20" as="geometry" />
        </mxCell>
        <mxCell id="wyYgdvGrcwbV3h0Y1gWT-13" value="Y" style="text;html=1;strokeColor=none;fillColor=none;align=center;verticalAlign=middle;whiteSpace=wrap;rounded=0;fontFamily=宋体;fontSize=20;" vertex="1" parent="1">
          <mxGeometry x="446" y="950" width="40" height="20" as="geometry" />
        </mxCell>
      </root>
    </mxGraphModel>
  </diagram>
</mxfile>
